# xmcd CD database file
# Copyright (C) 1993-1998 Ti Kan
#
# Track frame offsets:
#	150
#	13207
#	25112
#	32835
#	51175
#	61475
#	77160
#	88032
#	113227
#	131277
#	164155
#	181092
#	199585
#	222559
#	245532
#
# Disc length: 3625 seconds
#
# Revision: 1
# Processed by: cddbd v1.4b41PL1 Copyright (c) Steve Scherf et al.
# Submitted via: CDValet v3.31 - Copyright (c) 1997 Greg Leichner
#
DISCID=d10e270f
DTITLE=Orquesta De Guitarras (UCR) - Paisaje Iberoamericano
DYEAR=1900
DGENRE=
TTITLE0=Alma Llanera
TTITLE1=Vals Peruano
TTITLE2=Polca Paraguaya
TTITLE3=Tardes De Alajuela
TTITLE4=El Diablo Suelto
TTITLE5=Pampa
TTITLE6=Ensueño
TTITLE7=Copacabana - Desafinado
TTITLE8=Pájaro Campana
TTITLE9=Centroamerica Itsmeña
TTITLE10=La Bikina
TTITLE11=Sombras
TTITLE12=El Manicero
TTITLE13=La Leyenda Del Beso
TTITLE14=Al Viento
EXTD=
EXTT0=
EXTT1=
EXTT2=
EXTT3=
EXTT4=
EXTT5=
EXTT6=
EXTT7=
EXTT8=
EXTT9=
EXTT10=
EXTT11=
EXTT12=
EXTT13=
EXTT14=
PLAYORDER=
